<?xml version="1.0" encoding="utf-8"?>
<!-- Generator: $$$/GeneralStr/196=Adobe Illustrator 27.6.0, SVG Export Plug-In . SVG Version: 6.00 Build 0)  -->
<svg version="1.1" xmlns="http://www.w3.org/2000/svg" xmlns:xlink="http://www.w3.org/1999/xlink" x="0px" y="0px"
	 viewBox="0 0 846.4 294.5" style="enable-background:new 0 0 846.4 294.5;" xml:space="preserve">
<style type="text/css">
	.st0{fill:#010102;}
	.st1{fill:#FF3700;}
	.st2{fill:#FFBA00;}
	.st3{fill:#FFFFFF;}
	.st4{fill:#004BFF;}
</style>
<g id="Capa_1">
	<rect class="st0" width="846.4" height="294.5"/>
	<g>
		<g>
			<rect x="73.4" y="73.4" class="st1" width="73.4" height="73.4"/>
			<path class="st2" d="M146.8,146.8c0-25.4,0-55.1,0-73.4c40.6,0,47.2,0,73.4,0C220.2,113.9,187.4,146.8,146.8,146.8z"/>
			<rect x="73.4" y="146.8" class="st3" width="73.4" height="73.4"/>
			<polygon class="st4" points="146.8,146.8 220.2,220.2 146.8,220.2 			"/>
		</g>
		<g>
			<path class="st3" d="M359.4,194.7v2.5H346c-25.9-0.1-22.1-0.1-32.3-31.8c-4.8-15-18.2-15-18.2-15h-6.8v29.1
				c0,9.9,4.7,15.2,10.8,15.2v2.5h-42.4v-2.5c6.3,0,10.5-5.2,10.5-15.2V110c0-9-4.1-13-10.5-13v-2.5h36.1c29,0,49.4,3.5,49.4,27.8
				c0,17.8-11.1,24.3-28.4,26.4c9.5-1,21.1,5.4,28.3,31.6C345.2,191.5,355.6,194.4,359.4,194.7z M318.7,122.4
				c0-25.4-11.5-25.4-25.6-25.4h-4.5v50.9h4.5C307.2,147.9,318.7,147.7,318.7,122.4z"/>
			<path class="st3" d="M385,128.6c-20.1,0-34.1,14.7-34.1,35.3c0,17,13.1,34.7,32.2,34.7c19.5,0,28.1-11.5,30.5-19.1l-2.5-1.3
				c-3.6,6.9-15.3,9.8-23.2,8c-9.8-2.2-17-9.6-18.2-23.9h46.3C416.1,139.5,406.2,128.6,385,128.6z M369.7,159.8
				c0-14,6-28.7,14.6-28.7c8,0,14,10.4,14,28.7H369.7z"/>
			<path class="st3" d="M553.9,183.8v-53.9h-25.1v2.5c7.4,0.9,6.8,3.8,6.8,12.7v33.4c-3.1,5.8-8.6,9.5-12.7,9.5
				c-8.5,0-12.2-3.9-12.2-12.1v-45.9h-25h-26.2v2.5c15.9,0,6.8,22,6.8,22l-8,19.8l-14.4-30.9c0,0-5.4-10.9,2.8-10.9v-2.5h-34.4v2.5
				c2.6,0,6.4,0,9.9,7.7c0,0,1.3,2.5,27.1,58.4h2.3l17.4-43.6c9.3-22.4,13.2-22.6,16.8-22.6c6.5,0,6.9,3.9,6.9,12.7v31.2
				c0,17.5,6.8,22.3,18.4,22.3c9,0,21.1-7.4,24.6-15.7v12.8c0,0,0.2,3.4,4.1,2.8l21.6-3.8v-2.5C555.2,191.4,553.9,190.8,553.9,183.8
				z"/>
			<path class="st3" d="M597.2,128.6c-20.1,0-34.1,14.7-34.1,35.3c0,17,13.1,34.7,32.2,34.7c19.5,0,28.1-11.5,30.5-19.1l-2.5-1.3
				c-3.6,6.9-15.3,9.8-23.2,8c-9.8-2.2-17-9.6-18.2-23.9h46.3C628.3,139.5,618.4,128.6,597.2,128.6z M581.9,159.8
				c0-14,6-28.7,14.6-28.7c8,0,14,10.4,14,28.7H581.9z"/>
			<path class="st3" d="M654.2,180V89.6L628.7,95v2.5c5.8,2.2,7.3,4.4,7.3,9.5V180c0,7.4-0.3,13.5-5.8,15.2v2.5H660v-2.5
				C654.9,193.9,654.2,188,654.2,180z"/>
			<path class="st3" d="M704.3,183.1c-1.5,2.3-4.5,5.1-8.7,5.1c-7.3,0-10.8-4.2-10.8-12.4v-43.4h16.8l0.6-2.5h-17.3v-22.6l-18.2,3.1
				v19.5h-7.7l0.4,2.5h7.3v43.9c0,17.6,6.8,22.3,18.4,22.3c9.8,0,18.7-7.3,21.6-14.1l-0.6-6.1C705.9,178.3,705.8,180.7,704.3,183.1z
				"/>
			<path class="st3" d="M768.4,187.1l2.5,1c-1.2,4.7-7.9,10.4-17,10.4c0,0-13,0-14.6-11.8c-2.2,6.4-10.8,11.8-21.1,11.8
				c0,0-16.8,0-16.8-14.9c0-15.9,12.2-17.3,37.7-23.8v-9c0-15.1-8.5-22.7-18.5-17.5c-4.7,2.3-5.2,4.8-4.2,4.9
				c2.2,0.3,4.1,1.3,5.4,3.2c2.6,3.8,1.6,8.9-2.2,11.5c-3.8,2.5-8.9,1.6-11.5-2.2c-1.8-2.8-1.9-6.3-0.4-8.7
				c1.5-2.5,3.3-6.4,11.4-10.6c6.6-3.5,14.1-2.9,14.1-2.9c19.1,0,24.3,11.9,24.3,29.2v21.7c0,0-0.2,10.2,7,10.2
				C764.4,189.5,767.5,189.5,768.4,187.1z M739.1,162.5c-14.3,3.2-19.1,10-19.1,17.5c0,0,0,9.6,9.5,9.6c5,0,8.3-3.9,9.6-7.4
				C739.1,181.8,739.1,162.5,739.1,162.5z"/>
		</g>
	</g>
	<rect x="73.4" y="221.1" class="st0" width="73.4" height="73.4"/>
</g>
<g id="Capa_2">
</g>
</svg>
